<?xml version="1.0" encoding="utf-8"?>
<!-- Generator: Adobe Illustrator 19.2.0, SVG Export Plug-In . SVG Version: 6.00 Build 0)  -->
<svg version="1.1" id="Layer_1" xmlns="http://www.w3.org/2000/svg" xmlns:xlink="http://www.w3.org/1999/xlink" x="0px" y="0px"
	 viewBox="0 0 600 400" style="enable-background:new 0 0 600 400;" xml:space="preserve">
<style type="text/css">
	.st0{fill:#97DB4F;}
	.st1{fill:#7AC043;}
	.st2{fill:#FFDD00;}
	.st3{fill:#00A6E0;}
	.st4{fill:#007198;}
	.st5{fill:#0E91C3;}
	.st6{fill:#32353B;}
</style>
<g>
	<path class="st0" d="M172,113.2c-25,0-45.3,20.3-45.3,45.3c0,25,20.3,45.3,45.3,45.3c25,0,45.3-20.3,45.3-45.3
		C217.4,133.5,197.1,113.2,172,113.2z M176.6,160.1v13.2c0,2.3-1.8,4.1-4.1,4.1c-2.3,0-4.1-1.8-4.1-4.1v-13.2
		c-3.9-1.6-6.7-5.5-6.7-10c0-5.9,4.8-10.8,10.8-10.8c5.9,0,10.8,4.8,10.8,10.8C183.3,154.7,180.5,158.5,176.6,160.1z"/>
	<g>
		<path class="st1" d="M175.2,72.6L175.2,72.6l-2.7-0.1C173.4,72.5,174.3,72.6,175.2,72.6z"/>
		<path class="st1" d="M86.6,158.4c0-47.4,38.4-85.9,85.9-85.9H66.3c-11.2,0-20.3,9.1-20.3,20.3V224c0,11.2,9.1,20.3,20.3,20.3
			h106.1C125,244.3,86.6,205.8,86.6,158.4z"/>
		<path class="st1" d="M172.5,244.3h2.7v-0.1C174.3,244.3,173.4,244.3,172.5,244.3z"/>
	</g>
	<g>
		<path class="st2" d="M495.9,137.6c-5,0-9.2,4.1-9.2,9.2c0,5,4.1,9.2,9.2,9.2h9.2v-9.2C505.1,141.7,501,137.6,495.9,137.6z"/>
		<path class="st2" d="M519.5,160.9h-9.4v48.8c2.1,0.1,4.3,0.3,6.4,0.3h3V160.9z"/>
		<path class="st2" d="M542.8,146.8c0-5-4.1-9.2-9.2-9.2c-5,0-9.2,4.1-9.2,9.2v9.2h9.2C538.7,155.9,542.8,151.8,542.8,146.8z"/>
		<path class="st2" d="M533.5,72.5H426.2v47.2c0,45.9,34.5,83.9,78.9,89.5v-48.3h-9.2c-7.8,0-14.2-6.4-14.2-14.2
			c0-7.8,6.4-14.2,14.2-14.2c7.8,0,14.2,6.4,14.2,14.2v9.2h9.4v-9.2c0-7.8,6.4-14.2,14.2-14.2c7.8,0,14.2,6.4,14.2,14.2
			c0,7.8-6.4,14.2-14.2,14.2h-9.2v49h29.3V92.8C553.8,81.6,544.7,72.5,533.5,72.5z"/>
	</g>
	<path class="st3" d="M478,244.3c-53.2-16.4-92-66.1-92-124.6V72.5l-78,0c-11.9,5.4-20.3,17.4-20.3,31.3c0,18.9,15.4,34.3,34.3,34.3
		c41.3,0,74.8,33.6,74.8,74.8c0,11.2-2.5,21.8-6.9,31.3L478,244.3z"/>
	<g>
		<path class="st4" d="M171.6,72.6c0.3,0,0.6,0,0.9,0L171.6,72.6L171.6,72.6z"/>
	</g>
	<g>
		<path class="st5" d="M249,119.4c-1.1-5-1.6-10.2-1.6-15.6c0-11.2,2.5-21.8,6.9-31.3h-81.7C205.9,72.5,234.8,91.6,249,119.4z"/>
		<path class="st5" d="M356.5,213c0-18.9-15.4-34.3-34.3-34.3c-28.6,0-53.5-16.1-66.1-39.7c1.5,6.3,2.2,12.8,2.2,19.5
			c0,46.5-37,84.4-83.2,85.8l0,0.1h161.1C348.2,238.9,356.5,226.9,356.5,213z"/>
	</g>
</g>
<g>
	<path class="st6" d="M46.1,291.2c0-16,8-23.7,21.1-23.7s21.1,7.7,21.1,23.7c0,15.9-8,23.6-21.1,23.6S46.1,307.1,46.1,291.2z
		 M50.8,291.2c0,13.2,6,19.4,16.3,19.4s16.3-6.3,16.3-19.4c0-13.2-6-19.5-16.3-19.5S50.8,278,50.8,291.2z"/>
	<path class="st6" d="M99.9,284.9v2.2c1.3-2.3,4.7-4.7,9.2-4.7c8.8,0,14.1,5.1,14.1,16.2s-5.3,16.3-14.1,16.3
		c-4.5,0-7.8-2.4-9.2-4.7v15.3c0,1.1-1,2.2-2.2,2.2c-1.1,0-2.2-1-2.2-2.2v-40.4c0-1.2,1-2.2,2.2-2.2
		C98.9,282.7,99.9,283.7,99.9,284.9z M109.1,310.9c6.2,0,9.7-3.9,9.7-12.3s-3.6-12.3-9.9-12.3c-5,0-9.2,3.5-9.2,12.3
		C99.7,307.2,103.8,310.9,109.1,310.9z"/>
	<path class="st6" d="M141.8,282.3c10.8,0,12.9,8.6,12.9,13.2c0,2,0,4.3-2.7,4.3h-19.7c0,6.7,3.8,11,10.2,11c3.9,0,6.2-1.5,8.1-2.9
		c0.4-0.3,0.7-0.4,1.2-0.4c1.1,0,2,0.9,2,2c0,0.7-0.3,1.1-0.7,1.6c-1,1-4.5,3.8-10.5,3.8c-9,0-14.6-4.9-14.6-16.3
		C127.9,288.1,133,282.3,141.8,282.3z M141.8,286.2c-5.9,0-9.1,3.8-9.5,9.8h18.2C150.4,291.1,148.8,286.2,141.8,286.2z"/>
	<path class="st6" d="M187.1,294.3v18c0,1.2-0.9,2.2-2.2,2.2c-1.2,0-2.2-0.9-2.2-2.2v-17.1c0-5.3-1.6-9-8.1-9c-6.7,0-9,4.1-9,9.5
		v16.7c0,1.2-0.9,2.2-2.2,2.2c-1.2,0-2.2-0.9-2.2-2.2v-27.4c0-1.2,0.9-2.2,2.2-2.2c1.2,0,2.2,0.9,2.2,2.2v2.2c1.3-2.6,4.6-4.7,9-4.7
		C185.1,282.3,187.1,288.5,187.1,294.3z"/>
	<path class="st6" d="M225.9,271.7c-7.1,0-9.8,3.5-9.8,7.4c0,11.2,25.5,6.4,25.5,22.7c0,8.4-5.8,13.1-16.2,13.1
		c-7.7,0-13.4-3.9-15.7-8.3c-0.3-0.5-0.3-0.8-0.3-1.2c0-1.2,0.9-2.2,2.2-2.2c0.8,0,1.5,0.4,1.9,1.1c2.2,3.5,6.1,6.4,12,6.4
		c7.4,0,11.6-3,11.6-8.9c0-12.6-25.5-6.7-25.5-22.7c0-6.2,4.5-11.5,14.4-11.5c6.4,0,11.6,2.7,14.4,7c0.3,0.4,0.4,0.8,0.4,1.3
		c0,1.2-0.9,2.2-2.2,2.2c-0.6,0-1.2-0.2-1.8-0.9C234.8,274.5,231.6,271.7,225.9,271.7z"/>
	<path class="st6" d="M260.9,282.3c6,0,9.3,3.2,10.4,4.7c0.3,0.5,0.5,0.8,0.5,1.3c0,1.1-0.9,2-2,2c-0.7,0-1.1-0.3-1.6-0.8
		c-1-1.1-2.8-3.2-7.3-3.2c-6.2,0-9.5,4-9.5,12.3c0,8.4,3.3,12.3,9.5,12.3c3.9,0,6.3-1.8,7.8-2.9c0.5-0.3,0.8-0.5,1.3-0.5
		c1.1,0,2,0.9,2,2c0,0.6-0.2,1.1-0.9,1.7c-1.5,1.2-4.7,3.6-10.2,3.6c-8.7,0-13.9-5.2-13.9-16.3S252.2,282.3,260.9,282.3z"/>
	<path class="st6" d="M278.3,273.8c0-2,0.9-2.7,2.6-2.7c1.6,0,2.6,0.7,2.6,2.7c0,1.6-0.9,2.6-2.6,2.6
		C279.2,276.4,278.3,275.4,278.3,273.8z M283,312.3c0,1.2-0.9,2.2-2.2,2.2c-1.2,0-2.2-0.9-2.2-2.2v-27.4c0-1.2,0.9-2.2,2.2-2.2
		c1.2,0,2.2,0.9,2.2,2.2V312.3z"/>
	<path class="st6" d="M303.7,282.3c10.8,0,12.9,8.6,12.9,13.2c0,2,0,4.3-2.7,4.3h-19.7c0,6.7,3.8,11,10.2,11c3.9,0,6.2-1.5,8.1-2.9
		c0.4-0.3,0.7-0.4,1.2-0.4c1.1,0,2,0.9,2,2c0,0.7-0.3,1.1-0.7,1.6c-1,1-4.5,3.8-10.5,3.8c-9,0-14.6-4.9-14.6-16.3
		C289.8,288.1,294.9,282.3,303.7,282.3z M303.7,286.2c-5.9,0-9.1,3.8-9.5,9.8h18.2C312.3,291.1,310.6,286.2,303.7,286.2z"/>
	<path class="st6" d="M349,294.3v18c0,1.2-0.9,2.2-2.2,2.2c-1.2,0-2.2-0.9-2.2-2.2v-17.1c0-5.3-1.6-9-8.1-9c-6.7,0-9,4.1-9,9.5v16.7
		c0,1.2-0.9,2.2-2.2,2.2c-1.2,0-2.2-0.9-2.2-2.2v-27.4c0-1.2,0.9-2.2,2.2-2.2c1.2,0,2.2,0.9,2.2,2.2v2.2c1.3-2.6,4.6-4.7,9-4.7
		C347,282.3,349,288.5,349,294.3z"/>
	<path class="st6" d="M369,282.3c6,0,9.3,3.2,10.4,4.7c0.3,0.5,0.5,0.8,0.5,1.3c0,1.1-0.9,2-2,2c-0.7,0-1.1-0.3-1.6-0.8
		c-1-1.1-2.8-3.2-7.3-3.2c-6.2,0-9.5,4-9.5,12.3c0,8.4,3.3,12.3,9.5,12.3c3.9,0,6.3-1.8,7.8-2.9c0.5-0.3,0.8-0.5,1.3-0.5
		c1.1,0,2,0.9,2,2c0,0.6-0.2,1.1-0.9,1.7c-1.5,1.2-4.7,3.6-10.2,3.6c-8.7,0-13.9-5.2-13.9-16.3S360.3,282.3,369,282.3z"/>
	<path class="st6" d="M398.8,282.3c10.8,0,12.9,8.6,12.9,13.2c0,2,0,4.3-2.7,4.3h-19.7c0,6.7,3.8,11,10.2,11c3.9,0,6.2-1.5,8.1-2.9
		c0.4-0.3,0.7-0.4,1.2-0.4c1.1,0,2,0.9,2,2c0,0.7-0.3,1.1-0.7,1.6c-1,1-4.5,3.8-10.5,3.8c-9,0-14.6-4.9-14.6-16.3
		C384.9,288.1,390,282.3,398.8,282.3z M398.8,286.2c-5.9,0-9.1,3.8-9.5,9.8h18.2C407.4,291.1,405.7,286.2,398.8,286.2z"/>
	<path class="st6" d="M470.5,289.8c-0.7,0.7-1.1,0.9-1.8,0.9c-1.1,0-2-0.9-2-2c0-0.5,0.1-0.8,0.3-1.1c1.9-3,5.5-5.3,11.2-5.3
		c7.8,0,12.2,4.6,12.2,11.5v18.6c0,1.1-0.9,2.1-2.1,2.1c-1.1,0-2.1-0.9-2.1-2.1v-2.4c-1.7,3.2-5.6,4.9-9.7,4.9
		c-7.2,0-11.7-3.4-11.7-9.7c0-5.9,4.5-9.5,11.8-9.5h9.5v-1.8c0-4.6-3-7.4-8-7.4C474.7,286.4,472.6,287.4,470.5,289.8z M486.3,302.2
		v-2.8h-9.5c-4.4,0-7.4,1.8-7.4,5.7c0,3.5,2.4,5.7,7.7,5.7C481.8,310.9,486.3,308,486.3,302.2z"/>
	<path class="st6" d="M525.7,298.5c0,11.1-5.1,16.3-13.8,16.3c-7.7,0-13.2-4.4-13.2-13.3V268c0-1.2,0.9-2.2,2.2-2.2
		c1.2,0,2.2,0.9,2.2,2.2v18.7c1.5-2.2,4.9-4.4,9.2-4.4C520.8,282.3,525.7,287.4,525.7,298.5z M502.9,301.5c0,6.4,3.7,9.4,8.9,9.4
		c6.2,0,9.5-3.9,9.5-12.3c0-8.3-3.4-12.3-9.5-12.3c-6.3,0-8.9,5.9-8.9,5.9V301.5z"/>
	<path class="st6" d="M536,290.5c0,7.1,17.8,4.5,17.8,15.3c0,6.1-5.1,8.9-11.5,8.9c-5.5,0-9.8-2.6-11.5-4.9
		c-0.3-0.5-0.5-0.8-0.5-1.3c0-1.1,0.9-2,2-2c0.4,0,0.9,0.1,1.5,0.7c2.1,2.1,4.8,3.3,8.6,3.3c3.8,0,7.2-1.3,7.2-4.8
		c0-7-17.8-4.2-17.8-15.3c0-5.6,4.6-8.2,10.3-8.2c4.6,0,8.2,1.5,10.3,4.3c0.2,0.3,0.5,0.7,0.5,1.3c0,1.1-0.9,2-2,2
		c-0.3,0-0.9-0.1-1.4-0.6c-1.8-1.8-3.8-2.8-7.4-2.8C539,286.5,536,287.4,536,290.5z"/>
</g>
<path class="st6" d="M458.9,314.2h-11.6c-9,0-11.3-7.4-11.3-11.3v-33.1c0-1.2,1-2.3,2.3-2.3c1.2,0,2.3,1,2.3,2.3v33.1
	c0,1.1,0.4,6.8,6.8,6.8h11.6c1.2,0,2.3,1,2.3,2.3C461.2,313.1,460.2,314.2,458.9,314.2"/>
</svg>
