<?xml version="1.0" encoding="utf-8"?>
<!-- Generator: Adobe Illustrator 19.2.0, SVG Export Plug-In . SVG Version: 6.00 Build 0)  -->
<svg version="1.1" id="Layer_1" xmlns="http://www.w3.org/2000/svg" xmlns:xlink="http://www.w3.org/1999/xlink" x="0px" y="0px"
	 viewBox="0 0 600 300" style="enable-background:new 0 0 600 300;" xml:space="preserve">
<style type="text/css">
	.st0{fill:#231F20;}
</style>
<path class="st0" d="M137.5,117.8c-18.2,0-32.9,14.7-32.9,32.9c0,18.2,14.7,32.9,32.9,32.9c18.2,0,32.9-14.7,32.9-32.9
	C170.4,132.5,155.6,117.8,137.5,117.8z M140.8,151.8v9.6c0,1.6-1.3,3-3,3c-1.6,0-3-1.3-3-3v-9.6c-2.8-1.2-4.8-4-4.8-7.2
	c0-4.3,3.5-7.8,7.8-7.8c4.3,0,7.8,3.5,7.8,7.8C145.6,147.8,143.6,150.6,140.8,151.8z"/>
<path class="st0" d="M462.4,98.5c-0.7,0-1.3,0.6-1.3,1.3v24.9c0,0.7,0.6,1.3,1.3,1.3s1.3-0.6,1.3-1.3v-9.4c0.9,1.4,2.9,2.9,5.7,2.9
	c5.4,0,8.7-3.2,8.7-10c0-6.8-3.3-10-8.7-10c-2.8,0-4.9,1.5-5.7,2.9v-1.3C463.8,99.1,463.1,98.5,462.4,98.5 M463.7,108.2
	c0-5.4,2.6-7.6,5.7-7.6c3.8,0,6.1,2.4,6.1,7.6c0,5.2-2.2,7.6-6,7.6C466.2,115.8,463.7,113.6,463.7,108.2 M481,108.2c0,7,3.4,10,9,10
	c3.7,0,5.9-1.7,6.5-2.3c0.2-0.2,0.5-0.5,0.5-1c0-0.7-0.5-1.2-1.2-1.2c-0.3,0-0.5,0.1-0.7,0.3c-1.2,0.9-2.6,1.8-5,1.8
	c-3.9,0-6.3-2.7-6.3-6.8h12.1c1.7,0,1.7-1.4,1.7-2.7c0-2.8-1.3-8.1-7.9-8.1C484.2,98.2,481,101.8,481,108.2 M494.9,106.7h-11.2
	c0.2-3.7,2.2-6,5.9-6C493.8,100.6,494.9,103.7,494.9,106.7 M509.8,98.2c-2.7,0-4.7,1.3-5.5,2.9v-1.3c0-0.7-0.6-1.3-1.3-1.3
	c-0.7,0-1.3,0.6-1.3,1.3v16.9c0,0.7,0.6,1.3,1.3,1.3c0.7,0,1.3-0.6,1.3-1.3v-10.3c0-3.3,1.4-5.8,5.5-5.8c4,0,5,2.2,5,5.5v10.6
	c0,0.7,0.6,1.3,1.3,1.3c0.7,0,1.3-0.6,1.3-1.3v-11.1C517.4,102.1,516.2,98.2,509.8,98.2"/>
<path class="st0" d="M443.3,118.1c8.2,0,13.2-4.9,13.2-14.8c0-10-5-14.9-13.2-14.9c-8.2,0-13.2,4.8-13.2,14.9
	C430.1,113.2,435.1,118.1,443.3,118.1 M443.3,91.1c6.5,0,10.2,3.9,10.2,12.2c0,8.3-3.8,12.2-10.2,12.2s-10.2-3.9-10.2-12.2
	C433,95,436.8,91.1,443.3,91.1"/>
<path class="st0" d="M456.6,195.4c3,0,4.9,1.7,4.9,4.6v1.1h-5.9c-4.5,0-7.3,2.2-7.3,5.9c0,3.8,2.8,5.9,7.2,5.9c2.5,0,4.9-1,5.9-3
	v1.5c0,0.7,0.6,1.3,1.3,1.3c0.7,0,1.3-0.6,1.3-1.3V200c0-4.2-2.7-7.1-7.5-7.1c-3.5,0-5.7,1.5-6.9,3.3c-0.1,0.2-0.2,0.4-0.2,0.7
	c0,0.7,0.5,1.2,1.2,1.2c0.4,0,0.7-0.1,1.1-0.6C453.1,196.1,454.4,195.4,456.6,195.4 M455.8,210.5c-3.2,0-4.7-1.4-4.7-3.5
	c0-2.4,1.9-3.5,4.6-3.5h5.9v1.7C461.5,208.7,458.7,210.5,455.8,210.5 M471.7,199c0,0,1.6-3.7,5.5-3.7c3.8,0,5.9,2.5,5.9,7.6
	c0,5.2-2,7.6-5.9,7.6c-3.2,0-5.5-1.8-5.5-5.8V199z M477.4,192.9c-2.7,0-4.7,1.4-5.7,2.7v-11.5c0-0.7-0.6-1.3-1.3-1.3
	c-0.7,0-1.3,0.6-1.3,1.3v20.6c0,5.5,3.4,8.2,8.1,8.2c5.4,0,8.5-3.2,8.5-10C485.7,196.1,482.7,192.9,477.4,192.9 M495.8,195.5
	c2.2,0,3.4,0.7,4.5,1.7c0.3,0.3,0.7,0.4,0.9,0.4c0.7,0,1.2-0.5,1.2-1.2c0-0.4-0.2-0.6-0.3-0.8c-1.3-1.7-3.5-2.7-6.3-2.7
	c-3.5,0-6.4,1.6-6.4,5c0,6.8,10.9,5.1,10.9,9.4c0,2.2-2,3-4.4,3c-2.3,0-4-0.7-5.3-2c-0.3-0.3-0.7-0.4-0.9-0.4
	c-0.7,0-1.2,0.5-1.2,1.2c0,0.3,0.1,0.5,0.3,0.8c1.1,1.4,3.7,3,7.1,3c3.9,0,7.1-1.7,7.1-5.5c0-6.6-10.9-5-10.9-9.4
	C492.1,196.1,493.9,195.5,495.8,195.5"/>
<path class="st0" d="M444.1,212.4H437c-5.5,0-7-4.5-7-7v-20.3c0-0.8,0.6-1.4,1.4-1.4c0.8,0,1.4,0.6,1.4,1.4v20.3
	c0,0.7,0.2,4.2,4.2,4.2h7.1c0.8,0,1.4,0.6,1.4,1.4C445.5,211.8,444.9,212.4,444.1,212.4"/>
<path class="st0" d="M453.2,155.2c0,6.8,3.2,10,8.6,10c3.4,0,5.4-1.5,6.3-2.2c0.4-0.4,0.5-0.7,0.5-1c0-0.7-0.5-1.2-1.2-1.2
	c-0.3,0-0.5,0.1-0.8,0.3c-1,0.7-2.4,1.8-4.8,1.8c-3.8,0-5.9-2.4-5.9-7.6c0-5.1,2-7.6,5.9-7.6c2.7,0,3.9,1.2,4.5,2
	c0.3,0.3,0.6,0.5,1,0.5c0.7,0,1.2-0.5,1.2-1.2c0-0.3-0.1-0.5-0.3-0.8c-0.7-0.9-2.7-2.9-6.4-2.9C456.4,145.2,453.2,148.4,453.2,155.2
	 M475.4,146.8c0-0.7-0.6-1.3-1.3-1.3c-0.7,0-1.3,0.6-1.3,1.3v16.9c0,0.7,0.6,1.3,1.3,1.3c0.7,0,1.3-0.6,1.3-1.3V146.8z M474.1,141.5
	c1,0,1.6-0.6,1.6-1.6c0-1.2-0.6-1.7-1.6-1.7c-1,0-1.6,0.5-1.6,1.7C472.5,141,473.1,141.5,474.1,141.5 M479.6,155.2c0,7,3.4,10,9,10
	c3.7,0,5.9-1.7,6.5-2.3c0.2-0.2,0.5-0.5,0.5-1c0-0.7-0.5-1.2-1.2-1.2c-0.3,0-0.5,0.1-0.7,0.2c-1.2,0.9-2.6,1.8-5,1.8
	c-3.9,0-6.3-2.7-6.3-6.8h12.1c1.7,0,1.7-1.5,1.7-2.7c0-2.8-1.3-8.1-7.9-8.1C482.7,145.2,479.6,148.8,479.6,155.2 M493.4,153.6h-11.2
	c0.2-3.7,2.2-6,5.9-6C492.4,147.6,493.4,150.6,493.4,153.6 M508.3,145.2c-2.7,0-4.7,1.3-5.5,2.9v-1.3c0-0.7-0.6-1.3-1.3-1.3
	c-0.7,0-1.3,0.6-1.3,1.3v16.9c0,0.7,0.6,1.3,1.3,1.3c0.7,0,1.3-0.6,1.3-1.3v-10.3c0-3.3,1.4-5.8,5.5-5.8c4,0,5,2.2,5,5.5v10.6
	c0,0.7,0.6,1.3,1.3,1.3c0.7,0,1.3-0.6,1.3-1.3v-11.1C516,149,514.7,145.2,508.3,145.2 M519.7,155.2c0,6.8,3.2,10,8.6,10
	c3.4,0,5.4-1.5,6.3-2.2c0.4-0.4,0.5-0.7,0.5-1c0-0.7-0.5-1.2-1.2-1.2c-0.3,0-0.5,0.1-0.8,0.3c-1,0.7-2.4,1.8-4.8,1.8
	c-3.8,0-5.9-2.4-5.9-7.6c0-5.1,2-7.6,5.9-7.6c2.7,0,3.9,1.2,4.5,2c0.3,0.3,0.6,0.5,1,0.5c0.7,0,1.2-0.5,1.2-1.2
	c0-0.3-0.1-0.5-0.3-0.8c-0.7-0.9-2.7-2.9-6.4-2.9C522.9,145.2,519.7,148.4,519.7,155.2 M538,155.2c0,7,3.4,10,9,10
	c3.7,0,5.9-1.7,6.5-2.3c0.2-0.2,0.5-0.5,0.5-1c0-0.7-0.5-1.2-1.2-1.2c-0.3,0-0.5,0.1-0.7,0.2c-1.2,0.9-2.6,1.8-5,1.8
	c-3.9,0-6.3-2.7-6.3-6.8h12.1c1.7,0,1.7-1.5,1.7-2.7c0-2.8-1.3-8.1-7.9-8.1C541.2,145.2,538,148.8,538,155.2 M551.9,153.6h-11.2
	c0.3-3.7,2.2-6,5.9-6C550.9,147.6,551.9,150.6,551.9,153.6"/>
<path class="st0" d="M447,142c0.3,0.4,0.7,0.5,1.1,0.5c0.7,0,1.3-0.6,1.3-1.3c0-0.3-0.1-0.5-0.2-0.8c-1.7-2.6-4.9-4.3-8.9-4.3
	c-6.1,0-8.8,3.3-8.8,7.1c0,9.8,15.7,6.2,15.7,14c0,3.7-2.6,5.5-7.1,5.5c-3.7,0-6.1-1.8-7.4-3.9c-0.2-0.4-0.7-0.7-1.2-0.7
	c-0.7,0-1.3,0.6-1.3,1.3c0,0.2,0,0.4,0.2,0.7c1.4,2.7,4.9,5.1,9.7,5.1c6.4,0,10-2.9,10-8.1c0-10-15.7-7.1-15.7-14
	c0-2.4,1.7-4.5,6-4.5C443.8,138.7,445.7,140.4,447,142"/>
<g>
	<path class="st0" d="M139.8,88.3L139.8,88.3l-2,0C138.5,88.2,139.1,88.3,139.8,88.3z"/>
	<path class="st0" d="M75.5,150.6c0-34.4,27.9-62.3,62.3-62.3h-77c-8.1,0-14.7,6.6-14.7,14.7v95.2c0,8.1,6.6,14.7,14.7,14.7h77
		C103.4,212.9,75.5,185,75.5,150.6z"/>
	<path class="st0" d="M137.8,212.9h2v0C139.1,212.8,138.5,212.9,137.8,212.9z"/>
</g>
<g>
	<path class="st0" d="M372.5,135.5c-3.7,0-6.6,3-6.6,6.6c0,3.7,3,6.6,6.6,6.6h6.6v-6.6C379.1,138.4,376.2,135.5,372.5,135.5z"/>
	<path class="st0" d="M389.6,152.4h-6.8v35.4c1.5,0.1,3.1,0.2,4.6,0.2h2.2V152.4z"/>
	<path class="st0" d="M406.5,142.1c0-3.7-3-6.6-6.6-6.6c-3.7,0-6.6,3-6.6,6.6v6.6h6.6C403.5,148.7,406.5,145.8,406.5,142.1z"/>
	<path class="st0" d="M399.7,88.2h-77.8v34.2c0,33.3,25,60.9,57.2,65v-35h-6.6c-5.7,0-10.3-4.6-10.3-10.3c0-5.7,4.6-10.3,10.3-10.3
		c5.7,0,10.3,4.6,10.3,10.3v6.6h6.8v-6.6c0-5.7,4.6-10.3,10.3-10.3c5.7,0,10.3,4.6,10.3,10.3c0,5.7-4.6,10.3-10.3,10.3h-6.6V188
		h21.2v-85C414.5,94.8,407.9,88.2,399.7,88.2z"/>
</g>
<path class="st0" d="M359.5,212.9c-38.6-11.9-66.7-48-66.7-90.4V88.2l-56.6,0c-8.7,3.9-14.7,12.6-14.7,22.7
	c0,13.7,11.2,24.9,24.9,24.9c29.9,0,54.3,24.4,54.3,54.3c0,8.1-1.8,15.8-5,22.7L359.5,212.9z"/>
<g>
	<path class="st0" d="M137.1,88.2c0.2,0,0.4,0,0.6,0L137.1,88.2L137.1,88.2z"/>
</g>
<g>
	<path class="st0" d="M193.3,122.3c-0.8-3.6-1.2-7.4-1.2-11.3c0-8.1,1.8-15.8,5-22.7h-59.3C162,88.2,183,102.1,193.3,122.3z"/>
	<path class="st0" d="M271.3,190.2c0-13.7-11.2-24.9-24.9-24.9c-20.7,0-38.8-11.7-47.9-28.8c1.1,4.5,1.6,9.3,1.6,14.1
		c0,33.8-26.8,61.2-60.4,62.3l0,0h116.9C265.3,209,271.3,200.3,271.3,190.2z"/>
</g>
</svg>
